<?xml version="1.0" encoding="utf-8"?>
<!-- Generator: Adobe Illustrator 15.1.0, SVG Export Plug-In . SVG Version: 6.00 Build 0)  -->
<!DOCTYPE svg PUBLIC "-//W3C//DTD SVG 1.1//EN" "http://www.w3.org/Graphics/SVG/1.1/DTD/svg11.dtd">
<svg version="1.1" id="Layer_1" xmlns="http://www.w3.org/2000/svg" xmlns:xlink="http://www.w3.org/1999/xlink" x="0px" y="0px"
	 width="1200px" height="1200px" viewBox="0 0 1200 1200" enable-background="new 0 0 1200 1200" xml:space="preserve">
<g>
	<g>
		<polygon fill="#FAC114" points="419.788,367.376 374.759,445.369 464.818,445.369 		"/>
		<polygon fill="#F28920" points="464.818,289.384 419.788,367.376 509.848,367.376 		"/>
		<polygon fill="#FAC114" points="554.878,289.384 464.817,289.384 509.848,367.376 		"/>
		<polygon fill="#E94524" points="419.788,523.364 509.848,523.364 464.818,445.369 		"/>
		<polygon fill="#F28920" points="374.759,445.369 419.788,523.364 464.818,445.369 		"/>
		<polygon fill="#E94524" points="464.818,601.358 554.878,601.358 509.848,523.363 		"/>
		<polygon fill="#A32622" points="419.788,523.364 464.818,601.359 509.848,523.364 		"/>
		<polygon fill="#FAC114" points="554.878,445.369 509.848,523.364 599.907,523.364 		"/>
		<polygon fill="#E94524" points="554.878,601.358 644.937,601.358 599.907,523.363 		"/>
		<polygon fill="#F28920" points="509.848,523.364 554.878,601.359 599.908,523.364 		"/>
		<polygon fill="#A32622" points="599.907,523.364 644.937,601.359 689.968,523.364 		"/>
		<polygon fill="#FAC114" points="689.997,523.036 644.968,445.042 599.937,523.036 		"/>
		<polygon fill="#F28920" points="735.104,445.453 780.135,523.448 825.164,445.453 		"/>
		<polygon fill="#F28920" points="554.878,289.384 509.849,367.376 599.907,367.376 		"/>
		<polygon fill="#E94524" points="644.937,289.384 554.877,289.384 599.908,367.376 		"/>
		<polygon fill="#A32622" points="689.968,367.376 644.937,289.384 599.906,367.376 		"/>
		<polygon fill="#E94524" points="509.849,367.376 554.878,445.369 599.908,367.376 		"/>
		<polygon fill="#E94524" points="599.907,367.376 644.937,445.369 689.968,367.376 		"/>
		<polygon fill="#FAC114" points="735.045,289.467 644.984,289.467 690.016,367.459 		"/>
		<polygon fill="#E94524" points="644.985,601.441 735.045,601.441 690.015,523.447 		"/>
		<polygon fill="#FAC114" points="735.045,445.453 690.016,523.448 780.074,523.448 		"/>
		<polygon fill="#F28920" points="690.015,523.447 735.045,601.443 780.074,523.447 		"/>
		<polygon fill="#F28920" points="735.045,289.467 690.016,367.459 780.074,367.459 		"/>
		<polygon fill="#E94524" points="825.242,445.453 780.213,367.459 735.184,445.453 		"/>
	</g>
	<text transform="matrix(1 0 0 1 328.5303 753)"><tspan x="0" y="0" font-family="'NexaBold'" font-size="102">WHAT’S IT  </tspan><tspan x="41.157" y="122.4" font-family="'NexaBold'" font-size="102">WORTH?</tspan></text>
</g>
</svg>
