<?xml version="1.0" encoding="utf-8"?>
<!-- Generator: Adobe Illustrator 15.1.0, SVG Export Plug-In . SVG Version: 6.00 Build 0)  -->
<!DOCTYPE svg PUBLIC "-//W3C//DTD SVG 1.1//EN" "http://www.w3.org/Graphics/SVG/1.1/DTD/svg11.dtd">
<svg version="1.1" id="Layer_1" xmlns="http://www.w3.org/2000/svg" xmlns:xlink="http://www.w3.org/1999/xlink" x="0px" y="0px"
	 width="1200px" height="1200px" viewBox="0 0 1200 1200" enable-background="new 0 0 1200 1200" xml:space="preserve">
<g>
	<g>
		<polygon fill="#FAC114" points="191.764,423.221 89.759,599.899 293.771,599.899 		"/>
		<polygon fill="#F28920" points="293.771,246.545 191.764,423.221 395.776,423.221 		"/>
		<polygon fill="#FAC114" points="497.784,246.545 293.77,246.545 395.776,423.221 		"/>
		<polygon fill="#E94524" points="191.764,776.581 395.776,776.581 293.771,599.898 		"/>
		<polygon fill="#F28920" points="89.759,599.899 191.764,776.582 293.771,599.899 		"/>
		<polygon fill="#E94524" points="293.771,953.263 497.784,953.263 395.776,776.58 		"/>
		<polygon fill="#A32622" points="191.764,776.581 293.771,953.266 395.776,776.581 		"/>
		<polygon fill="#FAC114" points="497.784,599.899 395.776,776.582 599.789,776.582 		"/>
		<polygon fill="#E94524" points="497.784,953.263 701.794,953.263 599.789,776.58 		"/>
		<polygon fill="#F28920" points="395.776,776.581 497.784,953.266 599.791,776.581 		"/>
		<polygon fill="#A32622" points="599.789,776.581 701.794,953.266 803.804,776.581 		"/>
		<polygon fill="#FAC114" points="803.87,775.838 701.865,599.159 599.856,775.838 		"/>
		<polygon fill="#F28920" points="906.051,600.089 1008.061,776.771 1110.065,600.089 		"/>
		<polygon fill="#F28920" points="497.784,246.545 395.779,423.221 599.789,423.221 		"/>
		<polygon fill="#E94524" points="701.794,246.545 497.782,246.545 599.791,423.221 		"/>
		<polygon fill="#A32622" points="803.804,423.221 701.794,246.545 599.787,423.221 		"/>
		<polygon fill="#E94524" points="395.779,423.221 497.784,599.899 599.791,423.221 		"/>
		<polygon fill="#E94524" points="599.789,423.221 701.794,599.899 803.804,423.221 		"/>
		<polygon fill="#FAC114" points="905.918,246.734 701.902,246.734 803.912,423.41 		"/>
		<polygon fill="#E94524" points="701.904,953.452 905.918,953.452 803.91,776.771 		"/>
		<polygon fill="#FAC114" points="905.918,600.089 803.912,776.771 1007.923,776.771 		"/>
		<polygon fill="#F28920" points="803.91,776.771 905.918,953.455 1007.923,776.771 		"/>
		<polygon fill="#F28920" points="905.918,246.734 803.912,423.41 1007.923,423.41 		"/>
		<polygon fill="#E94524" points="1110.242,600.089 1008.236,423.41 906.232,600.089 		"/>
	</g>
</g>
</svg>
